<?xml version="1.0" encoding="utf-8"?>
<!-- Generator: Adobe Illustrator 18.1.0, SVG Export Plug-In . SVG Version: 6.00 Build 0)  -->
<!DOCTYPE svg PUBLIC "-//W3C//DTD SVG 1.1//EN" "http://www.w3.org/Graphics/SVG/1.1/DTD/svg11.dtd">
<svg version="1.1" id="Layer_1" xmlns:sketch="http://www.bohemiancoding.com/sketch/ns"
	 xmlns="http://www.w3.org/2000/svg" xmlns:xlink="http://www.w3.org/1999/xlink" x="0px" y="0px" viewBox="-302.8 375.5 57.8 43.5"
	 enable-background="new -302.8 375.5 57.8 43.5" xml:space="preserve">
<title>Group</title>
<desc>Created with Sketch.</desc>
<g id="Page-1" sketch:type="MSPage">
	<g id="Portrait" transform="translate(-199.000000, -933.000000)" sketch:type="MSArtboardGroup">
		<g id="Group" transform="translate(200.000000, 934.000000)" sketch:type="MSLayerGroup">
			<path id="Fill-1" sketch:type="MSShapeGroup" fill="#FFFFFF" d="M-282.2,374.5c-12,0-21.7,9.7-21.7,21.8s9.7,21.8,21.7,21.8
				c12,0,32.8-9.7,32.8-21.8S-270.2,374.5-282.2,374.5"/>
			<path id="Fill-2" sketch:type="MSShapeGroup" fill="#E8E8E8" d="M-303.8,396.2c0,12,9.7,21.8,21.7,21.8c12,0,32.8-9.7,32.8-21.8
				s-20.8-21.8-32.8-21.8C-294.1,374.5-303.8,384.2-303.8,396.2z M-283.7,378.7c-10.5,0-19,8.5-19,19s8.5,19,19,19
				c10.5,0,19-8.5,19-19S-273.2,378.7-283.7,378.7z"/>
			<path id="Oval-22" sketch:type="MSShapeGroup" fill="#FFFFFF" d="M-288.9,383c-2.7,0-4.9,2.2-4.9,4.9c0,2.7,2.2,4.9,4.9,4.9
				c2.7,0,4.9-2.2,4.9-4.9C-284,385.2-286.2,383-288.9,383z"/>
			<path id="Path-165" sketch:type="MSShapeGroup" fill="#FFFFFF" d="M-246.1,402.9v-10.6l-7.3,4.7L-246.1,402.9z"/>
		</g>
	</g>
</g>
</svg>
