<?xml version="1.0" encoding="UTF-8" standalone="no"?>
<svg width="45px" height="86px" viewBox="0 0 45 86" version="1.1" xmlns="http://www.w3.org/2000/svg" xmlns:xlink="http://www.w3.org/1999/xlink" xmlns:sketch="http://www.bohemiancoding.com/sketch/ns">
    <!-- Generator: Sketch 3.1 (8751) - http://www.bohemiancoding.com/sketch -->
    <title>Group</title>
    <desc>Created with Sketch.</desc>
    <defs></defs>
    <g id="Page-1" stroke="none" stroke-width="1" fill="none" fill-rule="evenodd" sketch:type="MSPage">
        <g id="Portrait" sketch:type="MSArtboardGroup" transform="translate(-199.000000, -933.000000)">
            <g id="Group" sketch:type="MSLayerGroup" transform="translate(200.000000, 934.000000)">
                <path d="M-0.266784143,21.5828501 C-0.266784143,33.5579067 9.4785958,54.3856876 21.5,54.3856876 C33.5214042,54.3856876 43.2667841,33.5579067 43.2667841,21.5828501 C43.2667841,9.60723755 33.5214042,-0.100569849 21.5,-0.100569849 C9.4785958,-0.100569849 -0.266784143,9.60723755 -0.266784143,21.5828501" id="Fill-1" fill="#FFFFFF" sketch:type="MSShapeGroup"></path>
                <path d="M-0.266784143,21.5828501 C-0.266784143,33.5579067 9.4785958,54.3856876 21.5,54.3856876 C33.5214042,54.3856876 43.2667841,33.5579067 43.2667841,21.5828501 C43.2667841,9.60723755 33.5214042,-0.100569849 21.5,-0.100569849 C9.4785958,-0.100569849 -0.266784143,9.60723755 -0.266784143,21.5828501 Z M23,39 C33.4934102,39 42,30.4934102 42,20 C42,9.50658975 33.4934102,1 23,1 C12.5065898,1 4,9.50658975 4,20 C4,30.4934102 12.5065898,39 23,39 Z" id="Fill-2" fill="#E8E8E8" sketch:type="MSShapeGroup"></path>
                <path d="M13.1387906,19.7224187 C15.8235624,19.7224187 18,17.5459812 18,14.8612094 C18,12.1764376 15.8235624,10 13.1387906,10 C10.4540188,10 8.27758127,12.1764376 8.27758127,14.8612094 C8.27758127,17.5459812 10.4540188,19.7224187 13.1387906,19.7224187 Z" id="Oval-22" fill="#FFFFFF" sketch:type="MSShapeGroup"></path>
                <path d="M22.2027884,50.3468569 L17.5401602,57.6531431 L28.1133976,57.6531431 L22.2027884,50.3468569 Z" id="Path-165" fill="#FFFFFF" sketch:type="MSShapeGroup"></path>
                <path d="M22.8344895,56.5051553 C22.8344895,56.5051553 14.5818845,61.7996192 18.708187,66.7659489 C22.8344895,71.7322785 24.0764819,76.6608732 21.3923345,84.5853412" id="Path-336" stroke="#FFFFFF" stroke-width="2" sketch:type="MSShapeGroup"></path>
            </g>
        </g>
    </g>
</svg>