<svg width="278px" height="139px" viewBox="0 0 278 139" version="1.1" xmlns="http://www.w3.org/2000/svg" xmlns:xlink="http://www.w3.org/1999/xlink" xmlns:sketch="http://www.bohemiancoding.com/sketch/ns">
    <g id="Page-1" sketch:type="MSShapeGroup">
        <path d="M205.085791,103.086269 C195.155326,103.086269 185.967617,97.2984256 181.681652,88.3385485 C175.505423,75.4311165 180.970808,59.9000032 193.868255,53.7190016 C197.400676,52.0271602 201.164576,51.1679693 205.055901,51.1679693 C214.985019,51.1679693 224.172952,56.9560372 228.459591,65.9154644 C234.635146,78.8224466 229.169311,94.3546845 216.273213,100.534112 C212.740118,102.226853 208.976668,103.086269 205.085791,103.086269" id="Fill-1" fill="#878786"></path>
        <path d="M205.055901,55.0966311 C213.263531,55.0966311 221.137876,59.711521 224.918855,67.6142783 C230.168268,78.5847071 225.537332,91.7357265 214.57712,96.9902864 C211.51058,98.4603576 208.272341,99.157157 205.085791,99.157157 C196.877712,99.157157 189.002694,94.5427168 185.222838,86.6401845 C179.972975,75.6695307 184.603462,62.5189612 195.564348,57.2637265 C198.629989,55.7941052 201.868228,55.0988803 205.055901,55.0966311 M205.057475,47.2381828 L205.055901,47.2381828 C200.572393,47.2397573 196.237436,48.2267023 192.173062,50.1740518 C177.322873,57.2927411 171.027757,75.1733592 178.139793,90.0344385 C183.074799,100.350353 193.653407,107.016055 205.085791,107.016055 C209.568626,107.016055 213.90156,106.027761 217.968631,104.077937 C232.818595,96.9619466 239.112362,79.0813285 232.001001,64.2191246 C227.066445,53.90411 216.48941,47.2381828 205.057475,47.2381828" id="Fill-2" fill="#FDFF00"></path>
        <path d="M197.331681,59.4623107 C189.180011,63.3707298 185.736812,73.1488625 189.639599,81.3064531 C191.58043,85.3583706 194.965872,88.2409337 198.879672,89.6448786 C198.653137,90.2921958 198.672464,91.0292557 198.990692,91.6963657 C199.631193,93.0319353 201.232222,93.5951327 202.566037,92.9572621 C203.509259,92.5051748 204.037167,91.5740097 204.059641,90.5940372 C206.542763,90.6468932 209.073979,90.1520712 211.466307,89.0047589 C219.619775,85.0979142 223.062975,75.3155081 219.159289,67.1610663 C215.255378,59.0023511 205.482677,55.5559159 197.331681,59.4623107" id="Fill-3" fill="#F7F7F7"></path>
        <path d="M97.3319127,19.2454272 L160.159463,8.43738997 L155.578868,61.4915307 L87.5158383,73.6081472 L97.3319127,19.2454272" id="Fill-4" fill="#FDFF00"></path>
        <path d="M99.2756653,49.1326764 L93.933211,50.062267 L93.39946,55.580432 L98.7448359,54.6524159 L99.2756653,49.1326764" id="Fill-5" fill="#EC146F"></path>
        <path d="M99.8595327,43.0535631 L94.5139321,43.9815793 L93.9826532,49.5028932 L99.3293775,48.5710534 L99.8595327,43.0535631" id="Fill-6" fill="#EC146F"></path>
        <path d="M98.1299547,66.6376796 L103.511738,65.6988673 L104.040095,60.2180388 L98.6571884,61.1555016 L98.1299547,66.6376796" id="Fill-7" fill="#EC146F"></path>
        <path d="M98.6895505,55.21089 L93.3457478,56.142055 L92.8185141,61.624233 L98.164789,60.6948673 L98.6895505,55.21089" id="Fill-8" fill="#EC146F"></path>
        <path d="M104.05785,65.6028269 L109.403001,64.6721117 L109.930909,59.1908333 L104.587555,60.1222233 L104.05785,65.6028269" id="Fill-9" fill="#EC146F"></path>
        <path d="M101.028391,30.933123 L95.6816669,31.8620388 L95.1501633,37.3833528 L100.495539,36.4515129 L101.028391,30.933123" id="Fill-10" fill="#EC146F"></path>
        <path d="M99.2929701,54.5545761 L104.674978,53.617788 L105.208504,48.1000728 L99.8244737,49.0368608 L99.2929701,54.5545761" id="Fill-11" fill="#EC146F"></path>
        <path d="M112.283683,40.334966 L117.666141,39.3990777 L118.194498,33.9200485 L112.808445,34.8586359 L112.283683,40.334966" id="Fill-12" fill="#EC146F"></path>
        <path d="M113.430068,22.7939757 L108.088288,23.7231165 L107.558807,29.2417314 L112.901486,28.3098916 L113.430068,22.7939757" id="Fill-13" fill="#EC146F"></path>
        <path d="M119.363581,21.7597977 L113.978427,22.6979353 L113.447373,28.2154256 L118.834999,27.2763883 L119.363581,21.7597977" id="Fill-14" fill="#EC146F"></path>
        <path d="M107.542176,23.8175825 L102.156123,24.7577443 L101.628215,30.274335 L107.01292,29.3375469 L107.542176,23.8175825" id="Fill-15" fill="#EC146F"></path>
        <path d="M105.80698,47.4426343 L111.150333,46.5132686 L111.681612,40.9917298 L106.337584,41.9249191 L105.80698,47.4426343" id="Fill-16" fill="#EC146F"></path>
        <path d="M109.950686,64.5783204 L115.333817,63.6401828 L115.863074,58.1582298 L110.477694,59.0963673 L109.950686,64.5783204" id="Fill-17" fill="#EC146F"></path>
        <path d="M100.441827,37.0111117 L95.0948779,37.9427265 L94.5649475,43.4602168 L99.9107728,42.5310761 L100.441827,37.0111117" id="Fill-18" fill="#EC146F"></path>
        <path d="M116.461549,57.5057395 L121.845355,56.5651278 L122.376184,51.0476375 L116.993727,51.9819515 L116.461549,57.5057395" id="Fill-19" fill="#EC146F"></path>
        <path d="M118.215623,39.3030372 L123.595159,38.3626505 L124.126663,32.845835 L118.746453,33.7848722 L118.215623,39.3030372" id="Fill-20" fill="#EC146F"></path>
        <path d="M118.792973,33.2621602 L124.174757,32.3255971 L124.709182,26.8056327 L119.327399,27.744445 L118.792973,33.2621602" id="Fill-21" fill="#EC146F"></path>
        <path d="M117.631082,45.3823754 L123.012865,44.4449126 L123.543694,38.9274223 L118.159664,39.8639854 L117.631082,45.3823754" id="Fill-22" fill="#EC146F"></path>
        <path d="M117.047214,51.4225777 L122.429897,50.4860146 L122.960726,44.9660502 L117.577369,45.9050874 L117.047214,51.4225777" id="Fill-23" fill="#EC146F"></path>
        <path d="M132.725785,48.730746 L138.111164,47.7919337 L138.642668,42.2728689 L133.256614,43.2110065 L132.725785,48.730746" id="Fill-24" fill="#EC146F"></path>
        <path d="M140.977913,17.9926278 L135.594556,18.9327896 L135.063053,24.4484806 L140.445061,23.510343 L140.977913,17.9926278" id="Fill-25" fill="#EC146F"></path>
        <path d="M134.463229,25.1083932 L129.119426,26.0379838 L128.584776,31.5595227 L133.93195,30.6258835 L134.463229,25.1083932" id="Fill-26" fill="#EC146F"></path>
        <path d="M133.878238,31.185932 L128.531289,32.1193463 L128.001808,37.6375113 L133.347408,36.7058964 L133.878238,31.185932" id="Fill-27" fill="#EC146F"></path>
        <path d="M139.240918,41.6167799 L144.586294,40.6871893 L145.115775,35.1681246 L139.772647,36.0992896 L139.240918,41.6167799" id="Fill-28" fill="#EC146F"></path>
        <path d="M132.710728,43.3054725 L127.367374,44.2386618 L126.837893,49.7570518 L132.178999,48.8267864 L132.710728,43.3054725" id="Fill-29" fill="#EC146F"></path>
        <path d="M152.798419,15.9359676 L147.415062,16.8723058 L146.883783,22.3904709 L152.269162,21.4516586 L152.798419,15.9359676" id="Fill-30" fill="#EC146F"></path>
        <path d="M145.717846,34.5100113 L151.100304,33.5732233 L151.630909,28.0935194 L146.244181,29.0336812 L145.717846,34.5100113" id="Fill-31" fill="#EC146F"></path>
        <path d="M146.866479,16.9678964 L141.522451,17.8995113 L140.993869,23.4176764 L146.335649,22.4862864 L146.866479,16.9678964" id="Fill-32" fill="#EC146F"></path>
        <path d="M133.297292,37.2263592 L127.953489,38.1577492 L127.421086,43.6774887 L132.766462,42.7460987 L133.297292,37.2263592" id="Fill-33" fill="#EC146F"></path>
        <path d="M143.382601,58.7533657 L148.76888,57.8152282 L149.299484,52.3326003 L143.915678,53.2714126 L143.382601,58.7533657" id="Fill-34" fill="#EC146F"></path>
        <path d="M131.561871,60.8118252 L136.947924,59.8736877 L137.473584,54.3910599 L132.089104,55.3298722 L131.561871,60.8118252" id="Fill-35" fill="#EC146F"></path>
        <path d="M137.496957,59.7776472 L142.83649,58.8489563 L143.366645,53.3672282 L138.023292,54.2970437 L137.496957,59.7776472" id="Fill-36" fill="#EC146F"></path>
        <path d="M132.123939,49.3848107 L126.779911,50.3164256 L126.252677,55.797254 L131.598278,54.8676634 L132.123939,49.3848107" id="Fill-37" fill="#EC146F"></path>
        <path d="M152.760213,21.9179159 L152.228485,27.4363058 L157.612291,26.5004175 L158.143345,20.9820275 L152.760213,21.9179159" id="Fill-38" fill="#EC146F"></path>
        <path d="M151.65136,33.4774078 L157.03157,32.5408447 L157.562624,27.0224547 L152.180616,27.9596926 L151.65136,33.4774078" id="Fill-39" fill="#EC146F"></path>
        <path d="M151.06502,39.556521 L156.448601,38.6199579 L156.977858,33.1024676 L151.596074,34.0374563 L151.06502,39.556521" id="Fill-40" fill="#EC146F"></path>
        <path d="M150.482276,45.5989725 L155.864734,44.6624094 L156.397137,39.142445 L151.015353,40.0763091 L150.482276,45.5989725" id="Fill-41" fill="#EC146F"></path>
        <path d="M149.897061,51.6796602 L155.281541,50.7417476 L155.810348,45.2204337 L150.426317,46.1569968 L149.897061,51.6796602" id="Fill-42" fill="#EC146F"></path>
        <path d="M46.4882522,31.1024871 L61.8632029,28.4106553 L68.3617057,40.2144094 L77.1866888,25.731644 L94.6040517,22.6884887 L90.3455053,70.2188414 L73.325253,73.1954207 L74.6918804,57.5394773 L68.9687211,66.503178 L65.4603476,67.0976392 L60.5846726,58.8599773 L59.0933161,75.6819013 L42.2306047,78.6310405 L46.4882522,31.1024871" id="Fill-43" fill="#EC146F"></path>
        <path d="M91.3271576,26.2548058 L87.6131496,67.7060453 L76.5927082,69.6331521 L78.6708537,45.8373867 L67.1899256,63.8144951 L66.9631657,63.8531812 L58.458658,49.4880485 L56.359612,73.1682055 L45.5072741,75.0671974 L49.2206079,33.6159579 L60.2992563,31.6789547 L68.2311334,46.0881715 L79.0063864,28.4072816 L91.3271576,26.2548058 M97.8800469,19.1262201 L90.3142668,20.4480696 L77.993945,22.6018948 L75.3669911,23.0605049 L73.9774406,25.3378107 L68.4895812,34.3426715 L63.4278238,25.1461796 L59.2843428,25.8710939 L48.2063686,27.8085469 L43.7581439,28.5890162 L38.9537106,82.1957832 L46.5210639,80.8723592 L57.373177,78.9738172 L61.8270202,78.1953722 L62.7093387,68.2321311 L63.9586532,70.3400728 L67.9472902,69.6648657 L68.1738254,69.6264045 L70.7178513,69.1954595 L70.0577979,76.758589 L77.6069475,75.4383139 L88.6267146,73.511432 L93.0762878,72.7361359 L97.8800469,19.1262201" id="Fill-44" fill="#FDFF00"></path>
        <path d="M161.162241,11.2304353 L175.468566,8.7275356 L185.993237,23.849521 L187.556959,6.61577023 L204.472034,3.65740939 L200.212139,51.1877621 L186.536202,53.5822508 L175.428563,37.7261294 L173.818095,55.8008528 L156.903919,58.7605631 L161.162241,11.2304353" id="Fill-45" fill="#EC146F"></path>
        <path d="M201.195365,7.22305178 L197.479783,48.6740663 L187.871591,50.3557864 L173.212204,29.4259401 L171.085964,53.287157 L160.180813,55.1946958 L163.893922,13.7436812 L174.124412,11.9553495 L188.194089,32.1706278 L190.285719,9.13081553 L201.195365,7.22305178 M207.748928,0.0931165049 L200.180901,1.41699029 L189.271479,3.32385437 L184.82685,4.10139968 L183.790362,15.5306634 L178.958736,8.58651133 L176.810922,5.50242071 L173.110847,6.14928803 L162.879458,7.93694498 L158.430784,8.71449029 L153.628373,62.3268803 L161.195053,61.0023317 L172.100878,59.0947929 L176.5518,58.3156731 L177.646719,46.0276683 L185.197217,56.8071408 L188.886055,56.1618479 L198.494247,54.4817023 L202.942922,53.7028074 L207.748928,0.0931165049" id="Fill-46" fill="#FDFF00"></path>
        <path d="M7.57432013,87.6865081 L26.2470655,84.4200081 C28.3411673,84.0540647 30.2624462,83.8703058 31.9526952,83.8703058 C32.6700566,83.8703058 33.3469652,83.8997702 33.9858933,83.9638722 C36.2788876,84.1896909 38.263093,84.7508641 39.8794034,85.6316472 C41.5820129,86.5614628 42.9241439,87.789746 43.8678157,89.2807346 C44.7449652,90.6822055 45.3324285,92.207157 45.6117769,93.8227508 C46.1783395,97.0615858 45.6367227,100.056833 44.0015344,102.723699 C43.3900243,103.723464 42.6459192,104.638435 41.775287,105.465238 C41.9575489,105.600639 42.136215,105.740314 42.3112854,105.883812 C44.2033484,107.450149 45.4014228,109.62939 45.8769669,112.365981 C46.2509297,114.497089 46.1450784,116.60683 45.5625594,118.628403 C44.9715004,120.682139 43.8430946,122.580906 42.2013888,124.264426 C40.6578933,125.847631 38.6298642,127.239655 36.1712385,128.402262 C33.791945,129.526408 30.9121617,130.389872 27.614367,130.96589 L3.31577365,135.213937 L7.57432013,87.6865081 L7.57432013,87.6865081 Z M21.3927405,116.919243 L25.9000711,116.130676 C27.1765788,115.907782 28.1110364,115.526994 28.6041099,115.026998 C28.902561,114.722458 28.9176184,114.556917 28.8951447,114.392727 C28.7762587,114.367985 28.5807373,114.340095 28.2852078,114.340095 C27.892367,114.340095 27.4228909,114.388228 26.8934099,114.480445 L21.5327518,115.416558 L21.3927405,116.919243 L21.3927405,116.919243 Z M22.8135295,101.282867 L26.457869,100.645447 C28.2874551,100.325837 28.960768,99.8170696 29.1659531,99.612843 C29.3230445,99.4578738 29.3808019,99.365657 29.3808019,99.2145113 C29.2846144,99.2023657 29.1425804,99.187746 28.9430137,99.187746 C28.5481504,99.187746 28.0667631,99.2370032 27.5105384,99.335068 L22.9092676,100.138929 L22.8135295,101.282867 L22.8135295,101.282867 Z" id="Fill-47" fill="#EC146F"></path>
        <path d="M31.9526952,86.816746 C32.5671269,86.816746 33.147848,86.8435113 33.696207,86.8979417 C35.6136653,87.0857492 37.2023331,87.5288398 38.4703007,88.2197913 C39.7378189,88.9118673 40.703515,89.7910761 41.3788504,90.8585421 C42.0496912,91.926233 42.4942215,93.0816424 42.7113177,94.3279191 C43.1520275,96.8521861 42.7436799,99.1398382 41.492118,101.183003 C40.2360614,103.230217 38.2747793,104.834565 35.6064737,106.00077 C37.4868504,106.333201 39.0975424,107.052492 40.4372013,108.157744 C41.7737138,109.265246 42.6209733,110.836306 42.9762829,112.873173 C43.2724867,114.568613 43.1927049,116.215696 42.732443,117.811722 C42.2748779,119.408422 41.3918852,120.872421 40.0922296,122.208215 C38.7903266,123.54266 37.0645691,124.720112 34.9138335,125.736746 C32.7624236,126.753605 30.160865,127.529576 27.1084834,128.062859 L6.59266774,131.648969 L10.3064511,90.2002039 L26.7540728,87.3241634 C28.6897348,86.98611 30.4229086,86.816746 31.9526952,86.816746 M19.5613565,104.842662 L26.9646516,103.549377 C28.9234616,103.205476 30.3503185,102.589197 31.242076,101.702791 C32.1372045,100.814136 32.4740857,99.7529676 32.2605853,98.5179369 C32.1030445,97.61961 31.6144656,96.9740922 30.7881067,96.5798091 C30.3139111,96.3544401 29.7003783,96.2404061 28.9430137,96.2404061 C28.3760016,96.2404061 27.729882,96.3065324 27.0021827,96.4322621 L20.1641019,97.6270324 L19.5613565,104.842662 M18.0989911,120.48646 L26.4068537,119.033932 C28.3281326,118.698128 29.7579111,118.051935 30.699785,117.098053 C31.6369394,116.142372 31.9994406,115.048816 31.784367,113.814684 C31.5027712,112.201115 30.3366095,111.393206 28.2852078,111.393206 C27.7197688,111.393206 27.0851108,111.453934 26.3850542,111.576739 L18.8120825,112.899264 L18.0989911,120.48646 M31.9526952,80.9227411 C30.0909717,80.9227411 28.0013646,81.1217945 25.7411819,81.5181019 L9.29288601,84.3932427 L4.84353759,85.170788 L0.0397784964,138.77778 L7.60713177,137.45593 L28.1218238,133.868471 C31.6796395,133.247019 34.8120275,132.305058 37.4286435,131.066879 C40.2054972,129.75515 42.520291,128.1589 44.3087502,126.323785 C46.2945287,124.284218 47.6681229,121.968227 48.394249,119.439236 C49.099924,116.989193 49.2309458,114.434786 48.7776508,111.853615 C48.3349184,109.310905 47.3319159,107.071385 45.84438,105.270008 C46.0781067,104.943875 46.3001471,104.610095 46.5116249,104.266419 C48.5061681,101.01229 49.1972352,97.2269013 48.5133597,93.3126343 C48.1677138,91.3216505 47.4431609,89.4402023 46.3657704,87.7227201 C45.1407276,85.7870663 43.438118,84.2187055 41.2923266,83.0466521 C39.321156,81.9735631 36.96119,81.2961068 34.2713096,81.0329515 C33.5386661,80.9596278 32.7586031,80.9227411 31.9526952,80.9227411" id="Fill-48" fill="#FDFF00"></path>
        <path d="M61.9764705,77.884534 L76.7248537,75.3033625 L91.75281,119.754348 L74.3069054,122.804701 L72.1121213,115.902383 L60.9325659,117.855131 L57.4196977,125.756314 L38.4186112,129.078144 L61.9764705,77.884534" id="Fill-49" fill="#EC146F"></path>
        <path d="M74.7440194,78.6436359 L87.8630574,117.44083 L76.3333614,119.458129 L74.1385772,112.556262 L58.8782425,115.222453 L55.3662732,123.123636 L43.4414891,125.206837 L64.0051738,80.5223851 L74.7440194,78.6436359 M62.9262102,105.713099 L71.7437769,104.171728 L68.3457494,93.0508285 L62.9262102,105.713099 M78.7054632,71.9655631 L73.7302296,72.8368997 L62.9909345,74.7154239 L59.9477672,75.2466828 L33.3948343,132.946078 L44.4559531,131.013798 L56.3782652,128.930372 L59.47065,128.390791 L62.9835182,120.490733 L70.0854406,119.248955 L70.721447,121.246461 L72.2804495,126.151047 L77.3478254,125.264416 L88.8766225,123.248016 L95.6430121,122.064042 L78.7054632,71.9655631" id="Fill-50" fill="#FDFF00"></path>
        <path d="M91.7258416,72.9743252 L108.751712,69.9993204 L105.959801,101.377333 L124.849193,98.0752961 L123.367276,114.227636 L87.4679693,120.504003 L91.7258416,72.9743252" id="Fill-51" fill="#EC146F"></path>
        <path d="M105.479313,73.5613641 L102.686728,104.942301 L121.565108,101.641613 L120.641437,111.711916 L90.7439644,116.938136 L94.4581973,75.4886958 L105.479313,73.5613641 M112.026584,66.4343528 L104.464399,67.7553026 L93.4437332,69.6824094 L88.9957332,70.4595049 L84.190401,124.068971 L91.7584285,122.744872 L121.655002,117.517977 L126.094462,116.742681 L128.134178,94.5085291 L120.551542,95.834877 L109.234673,97.8134903 L112.026584,66.4343528" id="Fill-52" fill="#FDFF00"></path>
        <path d="M126.596076,66.8803673 L143.623745,63.9024385 L140.831159,95.2827006 L159.718304,91.9829126 L158.237735,108.133003 L122.33753,114.407796 L126.596076,66.8803673" id="Fill-53" fill="#EC146F"></path>
        <path d="M140.349098,67.4683058 L137.554939,98.8460939 L156.433994,95.5469806 L155.511222,105.617283 L125.614424,110.842604 L129.328432,69.3947379 L140.349098,67.4683058 M146.896369,60.3390453 L139.335533,61.6613447 L128.314867,63.5886764 L123.865293,64.3655469 L119.063108,117.970739 L126.628888,116.648215 L156.523439,111.424019 L160.965596,110.648723 L163.000142,88.4168204 L155.421103,89.7415939 L144.102884,91.7179579 L146.896369,60.3390453" id="Fill-54" fill="#FDFF00"></path>
        <path d="M231.287909,49.5040178 L245.592661,47.001568 L256.121378,62.1235534 L257.686223,44.8882282 L274.59995,41.9300922 L270.337808,89.4595453 L256.661646,91.8497605 L245.556254,75.9965631 L243.946686,94.0717362 L227.029363,97.0316715 L231.287909,49.5040178" id="Fill-55" fill="#EC146F"></path>
        <path d="M271.32373,45.4957346 L267.605901,86.9458495 L257.997934,88.6246456 L243.34012,67.698623 L241.213431,91.5582654 L230.306257,93.4651294 L234.020265,52.0183883 L244.250755,50.2293819 L258.321555,70.4426359 L260.414309,47.4032735 L271.32373,45.4957346 M277.876619,38.3642249 L270.309266,39.6883236 L259.399845,41.5956375 L254.955441,42.372733 L254.548891,46.8699903 L253.918053,53.8046958 L249.085078,46.8589693 L246.937264,43.7764531 L243.236516,44.421746 L233.006026,46.2109773 L228.557127,46.9889725 L223.752694,100.59529 L231.319822,99.2711909 L242.228794,97.3636521 L246.679715,96.5867816 L247.774411,84.2974272 L253.176645,92.0081036 L255.323785,95.076 L259.009926,94.430932 L268.618343,92.7507864 L273.06859,91.9741408 L277.876619,38.3642249" id="Fill-56" fill="#FDFF00"></path>
        <path d="M171.361717,125.496982 L167.898965,134.836073 L176.100078,132.013788 L171.361717,125.496982" id="Fill-57" fill="#00FF00"></path>
        <path d="M190.882621,72.9711764 C190.008393,71.1443835 190.77677,68.9493981 192.603434,68.0728883 C194.430998,67.1975032 196.62286,67.9718997 197.496639,69.800267 C198.370642,71.6286343 197.601141,73.8206958 195.774252,74.6951812 C193.94579,75.5734903 191.75595,74.7981942 190.882621,72.9711764" id="Fill-58" fill="#878786"></path>
        <path d="M213.374551,85.982521 C212.567295,84.295178 213.280162,82.271356 214.967714,81.4647961 C216.652794,80.6553123 218.67498,81.3687557 219.482236,83.0533997 C220.289942,84.742767 219.577075,86.7672638 217.890871,87.5751731 C216.204668,88.3835324 214.181133,87.6685146 213.374551,85.982521" id="Fill-59" fill="#878786"></path>
        <path d="M212.62685,70.6882476 C211.615982,68.5764822 212.507515,66.049966 214.614876,65.0412039 C216.722687,64.031767 219.250981,64.9192977 220.260052,67.028589 C221.268223,69.1387799 220.378713,71.6704693 218.269104,72.6794563 C216.163766,73.689343 213.635247,72.7968641 212.62685,70.6882476" id="Fill-60" fill="#878786"></path>
        <path d="M199.926723,82.7220939 C199.456348,81.7364984 199.872112,80.5594968 200.855337,80.0885162 C201.839911,79.616411 203.017085,80.0302621 203.489033,81.0149579 C203.960082,82.0010032 203.546341,83.1811537 202.562441,83.653034 C201.577193,84.12289 200.400244,83.7088139 199.926723,82.7220939" id="Fill-61" fill="#878786"></path>
        <path d="M178.308795,125.036123 C175.160451,125.692662 172.208977,125.688613 169.450551,125.026676 C166.691677,124.360466 164.235973,123.175367 162.078045,121.45811 C159.92304,119.739503 158.132333,117.550816 156.702105,114.883275 C155.271428,112.216409 154.313373,109.206992 153.821423,105.855697 C153.235533,101.852587 153.320034,97.8542006 154.075825,93.858288 C154.82892,89.8601262 156.163185,86.1948447 158.076598,82.8586197 C159.986865,79.5253188 162.424141,76.6600744 165.383032,74.2635615 C168.340574,71.8710971 171.727814,70.275521 175.552168,69.4826812 C178.699389,68.8279417 181.652437,68.829966 184.411761,69.4961764 C187.167939,70.156089 189.624991,71.3481602 191.779547,73.0615939 C193.936351,74.7806505 195.727732,76.972712 197.159533,79.6371036 C198.585715,82.3035194 199.54849,85.312712 200.039541,88.6633317 C200.624307,92.6655421 200.537334,96.663254 199.786711,100.658492 C199.031369,104.655979 197.695531,108.324859 195.783017,111.657261 C193.873424,114.997309 191.434576,117.861654 188.47546,120.254568 C185.519715,122.649282 182.128655,124.243283 178.308795,125.036123" id="Fill-62" fill="#FFFFFF"></path>
        <path d="M176.345041,127.001241 C173.196472,127.657105 170.246571,127.653956 167.487247,126.99157 C164.727473,126.326034 162.271769,125.140036 160.114741,123.422328 C157.960184,121.705071 156.169253,119.515709 154.738576,116.848618 C153.308348,114.181078 152.348944,111.172785 151.859017,107.819916 C151.272228,103.817481 151.356504,99.818644 152.111622,95.8245307 C152.865166,91.8250194 154.200105,88.1604126 156.113069,84.8235129 C158.022661,81.4908867 160.459487,78.6233932 163.420401,76.2300291 C166.37682,73.83689 169.765184,72.2404142 173.587065,71.4473495 C176.736983,70.7935097 179.688458,70.7959838 182.448231,71.4615194 C185.205533,72.1212071 187.660787,73.3123786 189.816692,75.0262621 C191.973046,76.7450939 193.764427,78.9367055 195.197127,81.6015469 C196.62286,84.2688625 197.585859,87.2776052 198.075787,90.6282249 C198.660553,94.6299854 198.574703,98.6297217 197.822283,102.623835 C197.066716,106.620647 195.732676,110.289977 193.820386,113.623053 C191.91012,116.961303 189.471046,119.826772 186.513054,122.219686 C183.556411,124.61395 180.166249,126.208401 176.345041,127.001241" id="Fill-63" fill="#00FF00"></path>
    </g>
</svg>